{"title":"Stolichani v poveche - Season 5 - Episode 4","uid":8308573,"size":950603776,"categoryP":"video","categoryS":"tv_shows","magnet":"?xt=urn:btih:064e9636ee918310b776a200828beed1acb1b392&amp;dn=Stolichani+v+poveche+-+Season+5+-+Episode+4&amp;tr=udp%3A%2F%2Ftracker.openbittorrent.com%3A80&amp;tr=udp%3A%2F%2Fopen.demonii.com%3A1337&amp;tr=udp%3A%2F%2Ftracker.coppersurfer.tk%3A6969&amp;tr=udp%3A%2F%2Fexodus.desync.com%3A6969","seeders":2,"leechers":0,"uploader":"petarbg87","files":1,"time":1364423143,"description":"Stolichani v poveche.S05E04.WEB.Rip.AVI.FREEPLAY.avi\n\n   General\n      Complete name : Stolichani v poveche.S05E04.WEB.Rip.AVI.FREEPLAY.avi\n      Format : AVI\n      Format/Info : Audio Video Interleave\n      File size : 907 MiB\n      Duration : 47mn 58s\n      Overall bit rate : 2 642 Kbps\n   Video #0\n      ID : 0\n      Format : MPEG-4 Visual\n      Format profile : Simple@L3\n      Format settings, BVOP : No\n      Format settings, QPel : No\n      Format settings, GMC : No warppoints\n      Format settings, Matrix : Default (H.263)\n      Codec ID : XVID\n      Codec ID/Hint : XviD\n      Duration : 47mn 58s\n      Bit rate : 2 500 Kbps\n      Width : 1 280 pixels\n      Height : 720 pixels\n      Display aspect ratio : 16:9\n      Frame rate : 30.000 fps\n      Resolution : 24 bits\n      Colorimetry : 4:2:0\n      Scan type : Progressive\n      Bits/(Pixel*Frame) : 0.090\n      Stream size : 858 MiB (95%)\n      Writing library : XviD 1.2.1 (UTC 2008-12-04)\n   Audio #1\n      ID : 1\n      Format : MPEG Audio\n      Format version : Version 1\n      Format profile : Layer 3\n      Codec ID : 55\n      Codec ID/Hint : MP3\n      Duration : 47mn 58s\n      Bit rate mode : Constant\n      Bit rate : 128 Kbps\n      Channel(s) : 2 channels\n      Sampling rate : 48.0 KHz\n      Resolution : 16 bits\n      Stream size : 43.9 MiB (5%)\n      Alignment : Aligned on interleaves\n      Interleave, duration : 24 ms (0.72 video frame)\n      Writing library : LAME3.98","torrent":{"xt":"urn:btih:064e9636ee918310b776a200828beed1acb1b392","amp;dn":"Stolichani+v+poveche+-+Season+5+-+Episode+4","amp;tr":["udp%3A%2F%2Ftracker.openbittorrent.com%3A80","udp%3A%2F%2Fopen.demonii.com%3A1337","udp%3A%2F%2Ftracker.coppersurfer.tk%3A6969","udp%3A%2F%2Fexodus.desync.com%3A6969"],"infoHash":"064e9636ee918310b776a200828beed1acb1b392","infoHashBuffer":{"type":"Buffer","data":[6,78,150,54,238,145,131,16,183,118,162,0,130,139,238,209,172,177,179,146]},"announce":[],"urlList":[]}}